<?xml version="1.0" encoding="utf-8"?>
<svg version="1.1" width="207" height="97" id="svg2" xmlns="http://www.w3.org/2000/svg">
  <g transform="matrix(1.25,0,0,-1.25,-10.96875,185.84375)" id="g10">
    <path d="M 71.643 142.196 L 57.366 142.172 L 41.38 122.128 L 46.638 142.16 C 46.638 142.16 32.78 142.18 32.781 142.17 L 21.313 97.44 L 34.899 97.5 L 39.233 113.481 C 37.979 113.149 54.472 96.447 70.278 97.596 L 72.977 106.806 C 66.209 105.91 49.96 115.691 52.11 117.332 L 71.643 142.196 Z" id="path3891" style="fill:#ffffff;fill-opacity:1;fill-rule:evenodd;stroke:none"/>
    <path d="M 103.75,67.34375 C 46.45275,67.34375 0,73.91162 0,82.03125 0,90.15325 46.45275,96.75 103.75,96.75 c 57.30025,0 103.75,-6.59675 103.75,-14.71875 0,-8.11963 -46.44975,-14.6875 -103.75,-14.6875 z m -3.78125,10.0625 c 13.086,0 23.71875,2.20163 23.71875,4.90625 0,2.70988 -10.63275,4.90625 -23.71875,4.90625 -13.0835,0 -23.6875,-2.19638 -23.6875,-4.90625 0,-2.70462 10.604,-4.90625 23.6875,-4.90625 z" transform="matrix(0.8,0,0,-0.8,8.775,148.675)" id="path3889" style="fill:#ffffff;fill-opacity:1;fill-rule:evenodd;stroke:none"/>
    <path d="M 90.77 124.281 L 92.707 132.025 L 114.093 131.914 L 116.885 142.285 C 116.885 142.285 81.385 142.342 81.386 142.332 L 69.646 97.501 L 105.378 97.54 L 107.841 106.572 L 86.322 106.848 C 86.318 106.829 87.693 112.329 88.224 114.754 L 109.698 114.529 L 112.264 124.097 L 90.77 124.281 Z" id="path-1" style="fill:#ffffff;fill-opacity:1;fill-rule:evenodd;stroke:none"/>
  </g>
  <path d="M 177.479 21.023 L 191.346 21.05 L 194.746 7.846 L 92.081 8.04 L 104.096 20.795 L 159.713 21.174 L 151.694 52.541 L 136.51 52.488 L 133.424 63.777 L 180.501 64.027 L 183.275 52.686 L 169.525 52.585 L 177.479 21.023 Z" id="path-2" style="fill:#ffffff; fill-opacity: 1; fill-rule: evenodd;"/>
  <path d="M 167.46 66.286 L 97.346 65.328 L 105.953 53.104 L 139.907 53.082 L 147.87 22.867 L 131.433 22.06 L 136.21 6.413 L 164.816 22.055 L 156.667 53.117 L 170.834 53.208 Z M 155.373 54.109 L 163.65 22.557 L 136.808 7.879 L 132.765 21.124 L 149.152 21.929 L 140.677 54.082 L 106.473 54.104 L 99.254 64.354 L 166.688 65.276 L 169.546 54.2 Z" style="fill: none;"/>
</svg>